REM DIRINDEX 1\2,1\3,1\4,1\5,1\6
REM DIRNAME cjc030,folder01,folder02,folder03,folder04,folder05
TITLE ""
FILE "Disc5Track24.mp3" MP3
  TRACK 01 AUDIO
    TITLE "3:cjc030_08897"
    INDEX 01 00:00:00
  TRACK 02 AUDIO
    TITLE "0:"
    INDEX 01 00:01:07
  TRACK 03 AUDIO
    TITLE "4:cjc030_08898"
    INDEX 01 00:01:13
  TRACK 04 AUDIO
    TITLE "0:"
    INDEX 01 00:04:07
  TRACK 05 AUDIO
    TITLE "5:cjc030_08899"
    INDEX 01 00:04:17
  TRACK 06 AUDIO
    TITLE "0:"
    INDEX 01 00:05:22
  TRACK 07 AUDIO
    TITLE "6:cjc030_08900"
    INDEX 01 00:05:40
  TRACK 08 AUDIO
    TITLE "0:"
    INDEX 01 00:08:24
  TRACK 09 AUDIO
    TITLE "3:cjc030_08901"
    INDEX 01 00:08:72
  TRACK 10 AUDIO
    TITLE "0:"
    INDEX 01 00:10:10
  TRACK 11 AUDIO
    TITLE "4:cjc030_08902"
    INDEX 01 00:10:16
  TRACK 12 AUDIO
    TITLE "0:"
    INDEX 01 00:12:26
  TRACK 13 AUDIO
    TITLE "5:cjc030_08903"
    INDEX 01 00:12:34
  TRACK 14 AUDIO
    TITLE "0:"
    INDEX 01 00:13:43
  TRACK 15 AUDIO
    TITLE "6:cjc030_08904"
    INDEX 01 00:13:61
  TRACK 16 AUDIO
    TITLE "0:"
    INDEX 01 00:15:46
  TRACK 17 AUDIO
    TITLE "3:cjc030_08905"
    INDEX 01 00:16:20
  TRACK 18 AUDIO
    TITLE "0:"
    INDEX 01 00:17:21
  TRACK 19 AUDIO
    TITLE "4:cjc030_08906"
    INDEX 01 00:17:31
  TRACK 20 AUDIO
    TITLE "0:"
    INDEX 01 00:19:24
  TRACK 21 AUDIO
    TITLE "5:cjc030_08907"
    INDEX 01 00:19:32
  TRACK 22 AUDIO
    TITLE "0:"
    INDEX 01 00:20:34
  TRACK 23 AUDIO
    TITLE "6:cjc030_08908"
    INDEX 01 00:20:47
  TRACK 24 AUDIO
    TITLE "0:"
    INDEX 01 00:24:04
  TRACK 25 AUDIO
    TITLE "3:cjc030_08909"
    INDEX 01 00:24:55
  TRACK 26 AUDIO
    TITLE "0:"
    INDEX 01 00:25:62
  TRACK 27 AUDIO
    TITLE "4:cjc030_08910"
    INDEX 01 00:25:70
  TRACK 28 AUDIO
    TITLE "0:"
    INDEX 01 00:27:67
  TRACK 29 AUDIO
    TITLE "5:cjc030_08911"
    INDEX 01 00:28:04
  TRACK 30 AUDIO
    TITLE "0:"
    INDEX 01 00:29:07
  TRACK 31 AUDIO
    TITLE "3:cjc030_08912"
    INDEX 01 00:29:64
  TRACK 32 AUDIO
    TITLE "0:"
    INDEX 01 00:31:14
  TRACK 33 AUDIO
    TITLE "4:cjc030_08913"
    INDEX 01 00:31:22
  TRACK 34 AUDIO
    TITLE "0:"
    INDEX 01 00:32:29
  TRACK 35 AUDIO
    TITLE "5:cjc030_08914"
    INDEX 01 00:32:37
  TRACK 36 AUDIO
    TITLE "0:"
    INDEX 01 00:33:58
  TRACK 37 AUDIO
    TITLE "6:cjc030_08915"
    INDEX 01 00:34:02
  TRACK 38 AUDIO
    TITLE "0:"
    INDEX 01 00:37:01
  TRACK 39 AUDIO
    TITLE "3:cjc030_08916"
    INDEX 01 00:37:48
  TRACK 40 AUDIO
    TITLE "0:"
    INDEX 01 00:38:71
  TRACK 41 AUDIO
    TITLE "4:cjc030_08917"
    INDEX 01 00:39:03
  TRACK 42 AUDIO
    TITLE "0:"
    INDEX 01 00:41:65
  TRACK 43 AUDIO
    TITLE "5:cjc030_08918"
    INDEX 01 00:41:73
  TRACK 44 AUDIO
    TITLE "0:"
    INDEX 01 00:43:19
  TRACK 45 AUDIO
    TITLE "6:cjc030_08919"
    INDEX 01 00:43:33
  TRACK 46 AUDIO
    TITLE "0:"
    INDEX 01 00:45:22
  TRACK 47 AUDIO
    TITLE "3:cjc030_08920"
    INDEX 01 00:45:73
  TRACK 48 AUDIO
    TITLE "0:"
    INDEX 01 00:47:25
  TRACK 49 AUDIO
    TITLE "4:cjc030_08921"
    INDEX 01 00:47:32
  TRACK 50 AUDIO
    TITLE "0:"
    INDEX 01 00:49:29
  TRACK 51 AUDIO
    TITLE "5:cjc030_08922"
    INDEX 01 00:49:37
  TRACK 52 AUDIO
    TITLE "0:"
    INDEX 01 00:50:62
  TRACK 53 AUDIO
    TITLE "6:cjc030_08923"
    INDEX 01 00:51:03
  TRACK 54 AUDIO
    TITLE "0:"
    INDEX 01 00:52:71
  TRACK 55 AUDIO
    TITLE "3:cjc030_08924"
    INDEX 01 00:53:45
  TRACK 56 AUDIO
    TITLE "0:"
    INDEX 01 00:54:74
  TRACK 57 AUDIO
    TITLE "4:cjc030_08925"
    INDEX 01 00:55:06
  TRACK 58 AUDIO
    TITLE "0:"
    INDEX 01 00:57:17
  TRACK 59 AUDIO
    TITLE "5:cjc030_08926"
    INDEX 01 00:57:25
  TRACK 60 AUDIO
    TITLE "0:"
    INDEX 01 00:58:52
  TRACK 61 AUDIO
    TITLE "6:cjc030_08927"
    INDEX 01 00:58:69
  TRACK 62 AUDIO
    TITLE "0:"
    INDEX 01 01:01:74
  TRACK 63 AUDIO
    TITLE "3:cjc030_08928"
    INDEX 01 01:02:48
  TRACK 64 AUDIO
    TITLE "0:"
    INDEX 01 01:03:63
  TRACK 65 AUDIO
    TITLE "4:cjc030_08929"
    INDEX 01 01:03:73
  TRACK 66 AUDIO
    TITLE "0:"
    INDEX 01 01:05:58
  TRACK 67 AUDIO
    TITLE "5:cjc030_08930"
    INDEX 01 01:05:64
  TRACK 68 AUDIO
    TITLE "0:"
    INDEX 01 01:07:04
  TRACK 69 AUDIO
    TITLE "6:cjc030_08931"
    INDEX 01 01:07:21
  TRACK 70 AUDIO
    TITLE "0:"
    INDEX 01 01:10:59
  TRACK 71 AUDIO
    TITLE "3:cjc030_08932"
    INDEX 01 01:11:35
  TRACK 72 AUDIO
    TITLE "0:"
    INDEX 01 01:12:52
  TRACK 73 AUDIO
    TITLE "4:cjc030_08933"
    INDEX 01 01:12:62
  TRACK 74 AUDIO
    TITLE "0:"
    INDEX 01 01:13:49
  TRACK 75 AUDIO
    TITLE "5:cjc030_08934"
    INDEX 01 01:13:55
  TRACK 76 AUDIO
    TITLE "0:"
    INDEX 01 01:15:01
  TRACK 77 AUDIO
    TITLE "6:cjc030_08935"
    INDEX 01 01:15:15
  TRACK 78 AUDIO
    TITLE "0:"
    INDEX 01 01:16:73
  TRACK 79 AUDIO
    TITLE "3:cjc030_08936"
    INDEX 01 01:17:47
  TRACK 80 AUDIO
    TITLE "0:"
    INDEX 01 01:18:70
  TRACK 81 AUDIO
    TITLE "4:cjc030_08937"
    INDEX 01 01:19:05
  TRACK 82 AUDIO
    TITLE "0:"
    INDEX 01 01:19:66
  TRACK 83 AUDIO
    TITLE "5:cjc030_08938"
    INDEX 01 01:20:00
  TRACK 84 AUDIO
    TITLE "0:"
    INDEX 01 01:21:21
  TRACK 85 AUDIO
    TITLE "3:cjc030_08939"
    INDEX 01 01:22:03
  TRACK 86 AUDIO
    TITLE "0:"
    INDEX 01 01:23:05
  TRACK 87 AUDIO
    TITLE "4:cjc030_08940"
    INDEX 01 01:23:15
  TRACK 88 AUDIO
    TITLE "0:"
    INDEX 01 01:25:08
  TRACK 89 AUDIO
    TITLE "5:cjc030_08941"
    INDEX 01 01:25:15
  TRACK 90 AUDIO
    TITLE "0:"
    INDEX 01 01:26:19
  TRACK 91 AUDIO
    TITLE "6:cjc030_08942"
    INDEX 01 01:26:34
  TRACK 92 AUDIO
    TITLE "0:"
    INDEX 01 01:28:65
